<?xml version="1.0" encoding="utf-8"?>
<!-- Generator: Adobe Illustrator 16.0.0, SVG Export Plug-In . SVG Version: 6.00 Build 0)  -->
<!DOCTYPE svg PUBLIC "-//W3C//DTD SVG 1.1//EN" "http://www.w3.org/Graphics/SVG/1.1/DTD/svg11.dtd">
<svg version="1.1" id="Capa_1" xmlns="http://www.w3.org/2000/svg" xmlns:xlink="http://www.w3.org/1999/xlink" x="0px" y="0px"
	 width="288.299px" height="288.299px" viewBox="123.305 0 288.299 288.299" enable-background="new 123.305 0 288.299 288.299"
	 xml:space="preserve">
<g id="Search">
	<path fill="#333333" d="M411.604,254.171l-69.327-69.326c-0.333-0.333-0.725-0.566-1.073-0.877
		c12.344-18.725,19.549-41.139,19.549-65.243C360.752,53.155,307.597,0,242.029,0c-65.57,0-118.724,53.155-118.724,118.724
		c0,65.568,53.153,118.724,118.723,118.724c24.105,0,46.519-7.205,65.244-19.549c0.31,0.347,0.542,0.739,0.876,1.072l69.328,69.328
		L411.604,254.171z M242.029,196.29c-42.84,0-77.568-34.728-77.568-77.566c0-42.84,34.729-77.567,77.568-77.567
		c42.837,0,77.565,34.729,77.565,77.567C319.594,161.562,284.866,196.29,242.029,196.29z"/>
</g>
</svg>
