<?xml version="1.0" encoding="utf-8"?>
<!-- Generator: Adobe Illustrator 24.0.2, SVG Export Plug-In . SVG Version: 6.00 Build 0)  -->
<svg version="1.1" id="Capa_1" xmlns="http://www.w3.org/2000/svg" xmlns:xlink="http://www.w3.org/1999/xlink" x="0px" y="0px"
	 viewBox="0 0 288.3 288.3" style="enable-background:new 0 0 288.3 288.3;" xml:space="preserve">
<style type="text/css">
	.st0{fill:#FFFFFF;}
</style>
<g id="Search">
	<path class="st0" d="M288.3,254.2L219,184.8c-0.3-0.3-0.7-0.6-1.1-0.9c12.3-18.7,19.5-41.1,19.5-65.2C237.4,53.2,184.3,0,118.7,0
		C53.2,0,0,53.2,0,118.7c0,65.6,53.2,118.7,118.7,118.7c24.1,0,46.5-7.2,65.2-19.5c0.3,0.3,0.5,0.7,0.9,1.1l69.3,69.3L288.3,254.2z
		 M118.7,196.3c-42.8,0-77.6-34.7-77.6-77.6c0-42.8,34.7-77.6,77.6-77.6c42.8,0,77.6,34.7,77.6,77.6S161.6,196.3,118.7,196.3z"/>
</g>
</svg>
